<?xml version="1.0" encoding="UTF-8"?>
<svg xmlns="http://www.w3.org/2000/svg" xmlns:xlink="http://www.w3.org/1999/xlink" width="40px" height="40px" viewBox="0 0 40 40" version="1.1">
<g id="surface1">
<path style=" stroke:none;fill-rule:nonzero;fill:rgb(0%,0%,0%);fill-opacity:1;" d="M 12.589844 0 C 11.800781 -0.00390625 11.160156 0.632812 11.15625 1.421875 L 11.15625 7.140625 C 11.113281 9.085938 14.054688 9.085938 14.011719 7.140625 L 14.011719 2.855469 L 34.019531 2.855469 L 34.019531 37.144531 L 14.011719 37.144531 L 14.011719 32.859375 C 14.054688 30.914062 11.113281 30.914062 11.15625 32.859375 L 11.15625 38.578125 C 11.15625 39.367188 11.800781 40.003906 12.589844 40 L 35.441406 40 C 36.230469 40.003906 36.871094 39.367188 36.875 38.578125 L 36.875 1.421875 C 36.871094 0.632812 36.230469 -0.00390625 35.441406 0 Z M 12.566406 10.492188 C 7.339844 10.492188 3.078125 14.765625 3.078125 19.996094 C 3.078125 25.222656 7.339844 29.488281 12.566406 29.488281 C 17.796875 29.488281 22.070312 25.222656 22.070312 19.996094 C 22.070312 14.765625 17.796875 10.492188 12.566406 10.492188 Z M 12.566406 13.351562 C 16.25 13.351562 19.214844 16.308594 19.214844 19.996094 C 19.214844 23.679688 16.25 26.625 12.566406 26.625 C 8.882812 26.625 5.933594 23.679688 5.933594 19.996094 C 5.933594 16.308594 8.882812 13.351562 12.566406 13.351562 Z M 8.539062 17.980469 L 10.5625 20 L 8.539062 22.019531 C 7.304688 23.367188 9.214844 25.28125 10.5625 24.042969 L 12.582031 22.023438 L 14.605469 24.042969 C 15.953125 25.453125 18.035156 23.371094 16.628906 22.019531 L 14.609375 20 L 16.628906 17.980469 C 17.964844 16.644531 15.945312 14.613281 14.605469 15.953125 L 12.582031 17.972656 L 10.5625 15.953125 C 9.175781 14.570312 7.171875 16.613281 8.539062 17.980469 Z M 8.539062 17.980469 "/>
</g>
</svg>
